<?xml version="1.0" encoding="utf-8"?>
<!-- Generator: Adobe Illustrator 25.3.1, SVG Export Plug-In . SVG Version: 6.00 Build 0)  -->
<svg version="1.1" id="Layer_1" xmlns="http://www.w3.org/2000/svg" xmlns:xlink="http://www.w3.org/1999/xlink" x="0px" y="0px"
	 viewBox="0 0 358.19 45.31" style="enable-background:new 0 0 358.19 45.31;" xml:space="preserve">
<g>
	<rect x="18" y="3.32" width="2" height="2"/>
	<rect x="14" y="3.32" width="2" height="2"/>
	<rect x="2" y="3.32" width="2" height="2"/>
	<rect x="6" y="3.32" width="2" height="2"/>
	<rect x="10" y="3.32" width="2" height="2"/>
	<rect x="16" y="5.32" width="2" height="2"/>
	<rect x="12" y="5.32" width="2" height="2"/>
	<rect y="5.32" width="2" height="2"/>
	<rect x="4" y="5.32" width="2" height="2"/>
	<rect x="8" y="5.32" width="2" height="2"/>
	<rect x="18" y="7.32" width="2" height="2"/>
	<rect x="14" y="7.32" width="2" height="2"/>
	<rect x="6" y="7.32" width="2" height="2"/>
	<rect x="10" y="7.32" width="2" height="2"/>
	<rect x="16" y="9.32" width="2" height="2"/>
	<rect x="12" y="9.32" width="2" height="2"/>
	<rect x="8" y="9.32" width="2" height="2"/>
	<rect x="18" y="11.32" width="2" height="2"/>
	<rect x="14" y="11.32" width="2" height="2"/>
	<rect x="10" y="11.32" width="2" height="2"/>
	<rect x="16" y="13.32" width="2" height="2"/>
	<rect x="12" y="13.32" width="2" height="2"/>
	<rect x="8" y="13.32" width="2" height="2"/>
	<rect x="18" y="15.32" width="2" height="2"/>
	<rect x="14" y="15.32" width="2" height="2"/>
	<rect x="6" y="15.32" width="2" height="2"/>
	<rect x="16" y="17.32" width="2" height="2"/>
	<rect x="4" y="17.32" width="2" height="2"/>
	<rect x="18" y="19.32" width="2" height="2"/>
	<rect x="2" y="19.32" width="2" height="2"/>
	<rect x="16" y="21.32" width="2" height="2"/>
	<rect y="21.32" width="2" height="2"/>
	<rect x="10" y="15.32" width="2" height="2"/>
	<rect x="6" y="11.32" width="2" height="2"/>
	<rect x="38" y="25.31" width="2" height="2"/>
	<rect x="34" y="25.31" width="2" height="2"/>
	<rect x="22" y="25.31" width="2" height="2"/>
	<rect x="26" y="25.31" width="2" height="2"/>
	<rect x="30" y="25.31" width="2" height="2"/>
	<rect x="36" y="27.31" width="2" height="2"/>
	<rect x="32" y="27.31" width="2" height="2"/>
	<rect x="20" y="27.31" width="2" height="2"/>
	<rect x="24" y="27.31" width="2" height="2"/>
	<rect x="28" y="27.31" width="2" height="2"/>
	<rect x="38" y="29.31" width="2" height="2"/>
	<rect x="34" y="29.31" width="2" height="2"/>
	<rect x="26" y="29.31" width="2" height="2"/>
	<rect x="30" y="29.31" width="2" height="2"/>
	<rect x="36" y="31.31" width="2" height="2"/>
	<rect x="32" y="31.31" width="2" height="2"/>
	<rect x="28" y="31.31" width="2" height="2"/>
	<rect x="38" y="33.31" width="2" height="2"/>
	<rect x="34" y="33.31" width="2" height="2"/>
	<rect x="30" y="33.31" width="2" height="2"/>
	<rect x="36" y="35.31" width="2" height="2"/>
	<rect x="32" y="35.31" width="2" height="2"/>
	<rect x="28" y="35.31" width="2" height="2"/>
	<rect x="38" y="37.31" width="2" height="2"/>
	<rect x="34" y="37.31" width="2" height="2"/>
	<rect x="26" y="37.31" width="2" height="2"/>
	<rect x="36" y="39.31" width="2" height="2"/>
	<rect x="24" y="39.31" width="2" height="2"/>
	<rect x="38" y="41.31" width="2" height="2"/>
	<rect x="22" y="41.31" width="2" height="2"/>
	<rect x="36" y="43.31" width="2" height="2"/>
	<rect x="20" y="43.31" width="2" height="2"/>
	<rect x="30" y="37.31" width="2" height="2"/>
	<rect x="26" y="33.31" width="2" height="2"/>
	<rect x="42" y="1.31" width="2" height="2"/>
	<rect x="38" y="1.31" width="2" height="2"/>
	<rect x="26" y="1.31" width="2" height="2"/>
	<rect x="30" y="1.31" width="2" height="2"/>
	<rect x="34" y="1.31" width="2" height="2"/>
	<rect x="40" y="3.31" width="2" height="2"/>
	<rect x="36" y="3.31" width="2" height="2"/>
	<rect x="24" y="3.31" width="2" height="2"/>
	<rect x="28" y="3.31" width="2" height="2"/>
	<rect x="32" y="3.31" width="2" height="2"/>
	<rect x="42" y="5.31" width="2" height="2"/>
	<rect x="38" y="5.31" width="2" height="2"/>
	<rect x="30" y="5.31" width="2" height="2"/>
	<rect x="34" y="5.31" width="2" height="2"/>
	<rect x="40" y="7.31" width="2" height="2"/>
	<rect x="36" y="7.31" width="2" height="2"/>
	<rect x="32" y="7.31" width="2" height="2"/>
	<rect x="42" y="9.31" width="2" height="2"/>
	<rect x="38" y="9.31" width="2" height="2"/>
	<rect x="34" y="9.31" width="2" height="2"/>
	<rect x="40" y="11.31" width="2" height="2"/>
	<rect x="36" y="11.31" width="2" height="2"/>
	<rect x="32" y="11.31" width="2" height="2"/>
	<rect x="42" y="13.31" width="2" height="2"/>
	<rect x="38" y="13.31" width="2" height="2"/>
	<rect x="30" y="13.31" width="2" height="2"/>
	<rect x="40" y="15.31" width="2" height="2"/>
	<rect x="28" y="15.31" width="2" height="2"/>
	<rect x="42" y="17.31" width="2" height="2"/>
	<rect x="26" y="17.31" width="2" height="2"/>
	<rect x="40" y="19.31" width="2" height="2"/>
	<rect x="24" y="19.31" width="2" height="2"/>
	<rect x="34" y="13.31" width="2" height="2"/>
	<rect x="30" y="9.31" width="2" height="2"/>
	<polygon points="63.89,10.39 79.79,10.39 79.79,4.22 56.24,4.22 56.24,42.34 63.89,42.34 63.89,26.23 76.07,26.23 76.07,20.17 
		63.89,20.17 	"/>
	<path d="M102.77,13.53c-2.37-1.29-5.01-1.94-7.92-1.94c-2.91,0-5.55,0.65-7.92,1.94c-2.37,1.29-4.23,3.12-5.6,5.49
		c-1.37,2.37-2.05,5.1-2.05,8.19s0.66,5.83,1.99,8.19c1.33,2.37,3.16,4.2,5.49,5.49c2.33,1.29,4.95,1.94,7.87,1.94
		c2.95,0,5.62-0.65,8-1.94c2.38-1.29,4.28-3.12,5.68-5.49c1.4-2.37,2.1-5.1,2.1-8.19s-0.68-5.83-2.05-8.19
		C107,16.65,105.13,14.82,102.77,13.53z M101.46,32.13c-0.73,1.35-1.7,2.36-2.92,3.03c-1.22,0.67-2.52,1.01-3.91,1.01
		c-2.19,0-4-0.77-5.43-2.32c-1.44-1.55-2.16-3.76-2.16-6.64c0-2.88,0.74-5.09,2.21-6.64c1.47-1.55,3.3-2.32,5.49-2.32
		s4.03,0.77,5.54,2.32c1.51,1.55,2.27,3.76,2.27,6.64C102.55,29.14,102.18,30.78,101.46,32.13z"/>
	<path d="M121.69,16.78v-4.7h-7.65v30.26h7.65V27.27c0-2.8,0.61-4.77,1.83-5.9c1.22-1.13,3.03-1.69,5.43-1.69h2.02v-8.03
		c-2.04,0-3.85,0.46-5.43,1.36C123.95,13.92,122.67,15.18,121.69,16.78z"/>
	<path d="M173.68,11.65c-2.18,0-4.21,0.53-6.09,1.58c-1.88,1.06-3.3,2.46-4.29,4.21c-1.02-1.86-2.46-3.29-4.31-4.29
		c-1.86-1-3.97-1.5-6.34-1.5c-1.86,0-3.56,0.36-5.11,1.09c-1.55,0.73-2.81,1.73-3.8,3v-3.66h-7.65v30.26h7.65V25.63
		c0-2.37,0.61-4.18,1.83-5.43c1.22-1.26,2.88-1.88,5-1.88c2.08,0,3.71,0.63,4.92,1.88c1.2,1.26,1.8,3.07,1.8,5.43v16.71h7.65V25.63
		c0-2.37,0.61-4.18,1.83-5.43c1.22-1.26,2.87-1.88,4.94-1.88c2.08,0,3.71,0.63,4.92,1.88c1.2,1.26,1.8,3.07,1.8,5.43v16.71h7.65
		V24.59c0-4.08-1.14-7.25-3.41-9.53C180.39,12.78,177.4,11.65,173.68,11.65z"/>
	<path d="M214.19,16.4c-1.02-1.38-2.38-2.53-4.07-3.44c-1.69-0.91-3.67-1.36-5.93-1.36c-2.59,0-4.93,0.64-7.02,1.91
		c-2.09,1.28-3.75,3.1-4.97,5.46c-1.22,2.37-1.83,5.08-1.83,8.14c0,3.1,0.61,5.84,1.83,8.22c1.22,2.39,2.88,4.23,4.97,5.54
		c2.09,1.31,4.41,1.97,6.96,1.97c2.26,0,4.25-0.46,5.98-1.39c1.73-0.93,3.09-2.1,4.07-3.52v4.42h7.7V12.08h-7.7V16.4z M213.1,31.99
		c-0.73,1.33-1.71,2.35-2.95,3.06c-1.24,0.71-2.57,1.07-3.99,1.07c-1.38,0-2.69-0.36-3.91-1.09c-1.22-0.73-2.2-1.78-2.95-3.14
		c-0.75-1.37-1.12-2.96-1.12-4.78c0-1.82,0.37-3.39,1.12-4.72c0.75-1.33,1.72-2.34,2.92-3.03c1.2-0.69,2.51-1.04,3.93-1.04
		c1.42,0,2.75,0.35,3.99,1.06c1.24,0.71,2.22,1.73,2.95,3.06c0.73,1.33,1.09,2.92,1.09,4.78C214.19,29.07,213.83,30.66,213.1,31.99z
		"/>
	<path d="M238.28,4.6h-7.7v7.48h-3.6v6.28h3.6v14.58c0,6.26,3.22,9.39,9.67,9.39h4.81V35.9h-3.55c-1.17,0-1.99-0.23-2.48-0.68
		c-0.49-0.46-0.74-1.19-0.74-2.21V18.36h6.77v-6.28h-6.77V4.6z"/>
	<rect x="250.57" y="12.08" width="7.65" height="30.26"/>
	<path d="M287.33,13.53c-2.37-1.29-5.01-1.94-7.92-1.94c-2.91,0-5.55,0.65-7.92,1.94c-2.37,1.29-4.23,3.12-5.6,5.49
		c-1.37,2.37-2.05,5.1-2.05,8.19s0.66,5.83,1.99,8.19c1.33,2.37,3.16,4.2,5.49,5.49c2.33,1.29,4.95,1.94,7.87,1.94
		c2.95,0,5.62-0.65,8-1.94c2.38-1.29,4.28-3.12,5.68-5.49c1.4-2.37,2.1-5.1,2.1-8.19s-0.68-5.83-2.05-8.19
		C291.56,16.65,289.69,14.82,287.33,13.53z M286.02,32.13c-0.73,1.35-1.7,2.36-2.92,3.03c-1.22,0.67-2.52,1.01-3.91,1.01
		c-2.19,0-4-0.77-5.43-2.32c-1.44-1.55-2.16-3.76-2.16-6.64c0-2.88,0.74-5.09,2.21-6.64c1.47-1.55,3.3-2.32,5.49-2.32
		s4.03,0.77,5.54,2.32c1.51,1.55,2.27,3.76,2.27,6.64C287.11,29.14,286.74,30.78,286.02,32.13z"/>
	<path d="M316.37,11.65c-1.89,0-3.63,0.37-5.22,1.12c-1.58,0.75-2.89,1.78-3.91,3.09v-3.77h-7.65v30.26h7.65V25.63
		c0-2.4,0.61-4.25,1.83-5.54c1.22-1.29,2.88-1.94,5-1.94c2.08,0,3.71,0.65,4.92,1.94c1.2,1.29,1.8,3.14,1.8,5.54v16.71h7.65V24.59
		c0-4.08-1.11-7.25-3.33-9.53C322.88,12.78,319.97,11.65,316.37,11.65z"/>
	<path d="M356.58,28.88c-1.04-1.22-2.27-2.12-3.69-2.7c-1.42-0.58-3.22-1.15-5.41-1.69c-2.15-0.55-3.73-1.08-4.75-1.61
		c-1.02-0.53-1.53-1.3-1.53-2.32c0-0.91,0.37-1.62,1.12-2.13c0.75-0.51,1.81-0.77,3.2-0.77c1.49,0,2.68,0.36,3.58,1.07
		c0.89,0.71,1.39,1.67,1.5,2.87h7.32c-0.22-3.06-1.4-5.49-3.55-7.29c-2.15-1.8-5.02-2.7-8.63-2.7c-2.44,0-4.56,0.4-6.36,1.2
		c-1.8,0.8-3.19,1.89-4.15,3.28c-0.97,1.39-1.45,2.91-1.45,4.59c0,2.04,0.52,3.66,1.56,4.86c1.04,1.2,2.28,2.09,3.71,2.68
		c1.44,0.58,3.29,1.15,5.54,1.69c2.18,0.58,3.78,1.12,4.78,1.61s1.5,1.23,1.5,2.21c0,0.91-0.41,1.66-1.23,2.24
		c-0.82,0.58-1.96,0.87-3.41,0.87c-1.49,0-2.74-0.38-3.74-1.15c-1-0.76-1.58-1.73-1.72-2.89h-7.7c0.11,1.86,0.74,3.55,1.88,5.08
		c1.15,1.53,2.7,2.74,4.67,3.63c1.97,0.89,4.19,1.34,6.66,1.34c2.4,0,4.51-0.39,6.31-1.17c1.8-0.78,3.19-1.87,4.15-3.25
		c0.97-1.38,1.45-2.95,1.45-4.7C358.15,31.71,357.61,30.1,356.58,28.88z"/>
	<rect x="250.45" width="2" height="2"/>
	<rect x="254.45" width="2" height="2"/>
	<rect x="252.45" y="2" width="2" height="2"/>
	<rect x="256.45" y="2" width="2" height="2"/>
	<rect x="250.45" y="4" width="2" height="2"/>
	<rect x="254.45" y="4" width="2" height="2"/>
	<rect x="252.45" y="6" width="2" height="2"/>
	<rect x="256.45" y="6" width="2" height="2"/>
</g>
</svg>
